# AST/ASF file generated using VICON BodyLanguage
# -----------------------------------------------
:version 1.10
:name VICON
:units
  mass 1.0
  length 0.45
  angle deg
:documentation
   .ast/.asf automatically generated from VICON data using
   VICON BodyBuilder and BodyLanguage model FoxedUp or BRILLIANT.MOD
:root
   order TX TY TZ RX RY RZ
   axis XYZ
   position 0 0 0  
   orientation 0 0 0 
:bonedata
  begin
     id 1 
     name lhipjoint
     direction 0.57768 -0.667037 0.470475 
     length 2.36008 
     axis 0 0 0  XYZ
  end
  begin
     id 2 
     name lfemur
     direction 0.34202 -0.939693 0  
     length 6.97235  
     axis 0 0 20  XYZ
    dof rx ry rz
    limits (-160.0 20.0)
           (-70.0 70.0)
           (-60.0 70.0)
  end
  begin
     id 3 
     name ltibia
     direction 0.34202 -0.939693 0   
     length 6.93428   
     axis 0 0 20   XYZ
    dof rx
    limits (-10.0 170.0)
  end
  begin
     id 4 
     name lfoot
     direction 0.133018 -0.365463 0.921272   
     length 2.18603   
     axis -90 7.62852e-016 20   XYZ
    dof rx rz
    limits (-45.0 90.0)
           (-70.0 20.0)
  end
  begin
     id 5 
     name ltoes
     direction 1.53519e-011 -4.22055e-011 1   
     length 1.07924   
     axis -90 7.62852e-016 20   XYZ
    dof rx
    limits (-90.0 20.0)
  end
  begin
     id 6 
     name rhipjoint
     direction -0.577712 -0.667019 0.470462   
     length 2.36015  
     axis 0 0 0  XYZ 
  end
  begin
     id 7 
     name rfemur
     direction -0.34202 -0.939693 0   
     length 6.71195   
     axis 0 0 -20   XYZ
    dof rx ry rz
    limits (-160.0 20.0)
           (-70.0 70.0)
           (-70.0 60.0)
  end
  begin
     id 8 
     name rtibia
     direction -0.34202 -0.939693 0   
     length 7.04592   
     axis 0 0 -20   XYZ
    dof rx
    limits (-10.0 170.0)
 end
 begin
     id 9 
     name rfoot
     direction -0.113796 -0.312651 0.943027   
     length 2.03846  
     axis -90 -7.62852e-016 -20   XYZ
    dof rx rz
    limits (-45.0 90.0)
           (-20.0 70.0)
  end
  begin
     id 10 
     name rtoes
     direction -1.53586e-011 -4.218e-011 1   
     length 1.01562   
     axis -90 -7.62852e-016 -20   XYZ
    dof rx
    limits (-90.0 20.0)
  end
  begin
     id 11 
     name lowerback
     direction -0.0417299 0.991937 -0.119667   
     length 2.05257   
     axis 0 0 0   XYZ
    dof rx ry rz
    limits (-20.0 45.0)
           (-30.0 30.0)
           (-30.0 30.0)
  end
  begin
     id 12 
     name upperback
     direction -0.00017666 0.999999 0.00105178   
     length 2.05693   
     axis 0 0 0   XYZ
    dof rx ry rz
    limits (-20.0 45.0)
           (-30.0 30.0)
           (-30.0 30.0)
  end
  begin
     id 13 
     name thorax
     direction 0.0185169 0.998203 0.0569866   
     length 2.0932   
     axis 0 0 0   XYZ
    dof rx ry rz
    limits (-20.0 45.0)
           (-30.0 30.0)
           (-30.0 30.0)
  end
  begin
     id 14 
     name lowerneck
     direction -0.0212406 0.982645 0.184277   
     length 1.72509   
     axis 0 0 0   XYZ
    dof rx ry rz
    limits (-20.0 45.0)
           (-30.0 30.0)
           (-30.0 30.0)
  end
  begin
     id 15 
     name upperneck
     direction 0.00528579 0.965323 -0.261004   
     length 1.76294   
     axis 0 0 0   XYZ
    dof rx ry rz
    limits (-20.0 45.0)
           (-30.0 30.0)
           (-30.0 30.0)
  end
  begin
     id 16
     name head
     direction 0.00695421 0.994078 -0.108445  
     length 1.78678  
     axis 0 0 0   XYZ
    dof rx ry rz
    limits (-20.0 45.0)
           (-30.0 30.0)
           (-30.0 30.0)
  end
  begin
     id 17 
     name lclavicle
     direction 0.97277 0.211305 -0.095232  
     length 3.84823  
     axis 0 0 0   XYZ
    dof ry rz
    limits (-20.0 10.0)
           (0.0 20.0)
  end
  begin
     id 18 
     name lhumerus
     direction 1 -4.48957e-011 -1.98313e-027   
     length 4.97185   
     axis 180 -30 -90   XYZ
    dof rx ry rz
    limits (-60.0 90.0)
           (-90.0 90.0)
           (-90.0 90.0)
  end
  begin
     id 19
     name lradius
     direction 1 -4.4898e-011 7.31063e-027   
     length 3.35811   
     axis 180 -30 -90   XYZ
    dof rx
    limits (-10.0 170.0)
  end
  begin
     id 20
     name lwrist
     direction 1 -4.48938e-011 9.95048e-027   
     length 1.67905   
     axis -8.75986e-015 90 90   XYZ
    dof ry
    limits (-180.0 0.0)
 end
  begin
     id 21 
     name lhand
     direction 1 -4.4901e-011 1.9901e-026   
     length 0.622776   
     axis -1.26985e-014 90 90   XYZ
    dof rx rz
    limits (-90.0 90.0)
           (-45.0 45.0)
  end
  begin
     id 22 
     name lfingers
     direction 1 -4.48961e-011 3.98019e-026   
     length 0.502098   
     axis -2.5397e-014 90 90   XYZ
    dof rx
    limits (0.0 90.0)
  end
  begin
     id 23
     name lthumb
     direction 0.707107 -6.34933e-011 0.707107   
     length 0.720915   
     axis -90 45 2.85299e-015   XYZ
    dof rx rz
    limits (-45.0 45.0)
           (-45.0 45.0)
  end
  begin
     id 24 
     name rclavicle
     direction -0.990867 0.133739 -0.0172226   
     length 3.78845  
     axis 0 0 0   XYZ 
    dof ry rz
    limits (-10.0 20.0)
           (-20.0 0.0)
  end
  begin
     id 25 
     name rhumerus
     direction -1 -4.48972e-011 -1.99267e-027  
     length 4.96493   
     axis 180 30 90   XYZ
    dof rx ry rz
    limits (-90.0 60.0)
           (-90.0 90.0)
           (-90.0 90.0)
  end
  begin
     id 26 
     name rradius
     direction -1 -4.48969e-011 8.96093e-027   
     length 3.34929   
     axis 180 30 90   XYZ
    dof rx
    limits (-10.0 170.0)
  end
  begin
     id 27 
     name rwrist
     direction -1 -4.48953e-011 9.95048e-027   
     length 1.67464   
     axis -8.75986e-015 -90 -90   XYZ
    dof ry
    limits (-180.0 0.0)
  end
  begin
     id 28
     name rhand
     direction -1 -4.49001e-011 1.9901e-026   
     length 0.638041   
     axis -1.26985e-014 -90 -90   XYZ
    dof rx rz
    limits (-90.0 90.0)
           (-45.0 45.0)
  end
  begin
     id 29
     name rfingers
     direction -1 -4.48967e-011 3.98019e-026   
     length 0.514405   
     axis -2.5397e-014 -90 -90   XYZ
    dof rx
    limits (0.0 90.0)
  end
  begin
     id 30
     name rthumb
     direction -0.707107 -6.34904e-011 0.707107   
     length 0.738586   
     axis -90 -45 -2.85299e-015   XYZ
    dof rx rz
    limits (-45.0 45.0)
           (-45.0 45.0)
  end
:hierarchy
  begin
    root lhipjoint rhipjoint lowerback
    lhipjoint lfemur
    lfemur ltibia
    ltibia lfoot
    lfoot ltoes
    rhipjoint rfemur
    rfemur rtibia
    rtibia rfoot
    rfoot rtoes
    lowerback upperback
    upperback thorax
    thorax lowerneck lclavicle rclavicle
    lowerneck upperneck
    upperneck head
    lclavicle lhumerus
    lhumerus lradius
    lradius lwrist
    lwrist lhand lthumb
    lhand lfingers
    rclavicle rhumerus
    rhumerus rradius
    rradius rwrist
    rwrist rhand rthumb
    rhand rfingers
  end

#!OML:ASF E:\Mandelcareful walks\Project 1\Capture day 1\Session 1\Subject1.ASF
:FULLY-SPECIFIED
:DEGREES
79
root -3.97137 16.8257 -0.281698 139.44 79.9497 135.127
lowerback -6.87497 2.0375 -8.10376
upperback 1.71408 3.55354 -1.33087
thorax 5.26461 1.53092 3.53867
lowerneck -14.8789 11.2401 8.94502
upperneck 36.3601 18.0644 -4.18551
head 16.9152 8.7091 0.313037
rclavicle -1.2921e-015 2.26615e-014
rhumerus -31.1658 -4.27724 -85.964
rradius 32.7058
rwrist -12.2856
rhand -9.25774 -31.4942
rfingers 7.12502
rthumb 16.6983 -60.796
lclavicle -1.2921e-015 2.26615e-014
lhumerus -25.7224 15.201 84.2997
lradius 17.636
lwrist -5.67406
lhand -19.7946 -9.91194
lfingers 7.12502
lthumb 6.5381 19.9671
rfemur -0.4855 0.180156 4.95587
rtibia 14.6251
rfoot -19.3784 -25.9222
rtoes 0.00113503
lfemur -1.03487 -6.57639 -22.9834
ltibia 13.8927
lfoot -18.7984 23.0541
ltoes -1.15604
80
root -3.9962 16.8285 -0.272855 137.372 80.3484 133.22
lowerback -6.45992 1.99816 -8.11892
upperback 1.78842 3.45265 -1.16708
thorax 5.10759 1.48174 3.68967
lowerneck -15.6593 9.95214 7.31554
upperneck 37.2425 16.4457 -3.64743
head 17.1528 7.88233 0.514565
rclavicle -1.18153e-014 2.56432e-014
rhumerus -30.8721 -3.24003 -86.1222
rradius 32.9926
rwrist -12.6497
rhand -9.35742 -31.3756
rfingers 7.12502
rthumb 16.6024 -60.6855
lclavicle -1.18153e-014 2.56432e-014
lhumerus -26.02 16.0827 84.0399
lradius 17.8664
lwrist -5.72124
lhand -19.6519 -10.3511
lfingers 7.12502
lthumb 6.67584 19.5237
rfemur -0.740439 -0.502104 4.87792
rtibia 14.8161
rfoot -18.8394 -24.7886
rtoes -0.560268
lfemur -0.789845 -6.53126 -22.9729
ltibia 13.7126
lfoot -18.9517 23.446
ltoes -0.679287
81
root -4.03112 16.83 -0.255848 134.329 80.7957 130.467
lowerback -5.77895 2.01895 -8.24737
upperback 1.98115 3.41921 -0.946957
thorax 4.90763 1.46059 3.95912
lowerneck -16.1602 8.64131 5.70423
upperneck 37.6333 14.8352 -3.40744
head 17.1536 7.02741 0.565348
rclavicle 4.19436e-014 -2.22639e-014
rhumerus -30.3132 -2.30578 -86.1224
rradius 33.2425
rwrist -12.7748
rhand -9.38779 -31.2063
rfingers 7.12502
rthumb 16.5731 -60.5186
lclavicle 4.19436e-014 -2.22639e-014
lhumerus -26.2009 16.4542 84.1261
lradius 18.3367
lwrist -5.21035
lhand -19.433 -10.7124
lfingers 7.12502
lthumb 6.88716 19.1556
rfemur -1.03936 -1.00055 4.80795
rtibia 15.1548
rfoot -18.2155 -23.7583
rtoes -0.90051
lfemur -0.402916 -6.26347 -22.966
ltibia 13.4499
lfoot -18.9907 23.7414
ltoes -0.234148
82
root -4.05219 16.8248 -0.237391 135.567 80.6002 132.02
lowerback -5.01715 1.79933 -8.26997
upperback 2.13858 3.05594 -0.850698
thorax 4.67999 1.2851 4.01131
lowerneck -16.6088 7.23104 4.07107
upperneck 37.9812 12.9544 -2.85636
head 17.1112 6.09633 0.708281
rclavicle -1.15544e-014 2.3059e-014
rhumerus -29.9162 -1.87593 -86.1647
rradius 33.4839
rwrist -12.6628
rhand -9.55085 -30.7061
rfingers 7.12502
rthumb 16.4161 -60.0314
lclavicle -1.15544e-014 2.3059e-014
lhumerus -26.5184 16.0254 84.2098
lradius 19.0118
lwrist -4.45496
lhand -19.2894 -10.4363
lfingers 7.12502
lthumb 7.02584 19.4271
rfemur -0.98948 -2.13035 4.7909
rtibia 15.643
rfoot -17.9448 -22.9517
rtoes -1.33205
lfemur -0.073124 -5.8432 -22.7955
ltibia 13.1587
lfoot -18.3708 23.1829
ltoes -0.711886
83
root -4.09363 16.8233 -0.225258 131.943 80.9745 128.687
lowerback -4.12289 1.94465 -8.24144
upperback 2.31191 3.17007 -0.850282
thorax 4.34055 1.35445 3.96692
lowerneck -17.2562 5.74517 2.29358
upperneck 38.4677 10.928 -2.02088
head 17.2142 5.10886 1.00225
rclavicle -3.72721e-016 7.95139e-016
rhumerus -29.4566 -1.65409 -86.1446
rradius 33.6962
rwrist -12.5797
rhand -9.58509 -30.4632
rfingers 7.12502
rthumb 16.3832 -59.7913
lclavicle -3.72721e-016 7.95139e-016
lhumerus -26.6935 15.1983 84.4577
lradius 19.7128
lwrist -3.54505
lhand -19.4488 -10.1551
lfingers 7.12502
lthumb 6.87197 19.7134
rfemur -1.48149 -3.27113 4.51676
rtibia 16.2598
rfoot -17.0897 -21.3704
rtoes -2.80338
lfemur 0.296062 -5.5652 -22.8954
ltibia 12.8701
lfoot -18.2818 23.5605
ltoes -0.473021
84
root -4.1308 16.8162 -0.20525 128.738 81.1848 125.871
lowerback -3.21247 2.00792 -8.35872
upperback 2.59651 3.18717 -0.786287
thorax 4.11187 1.36326 4.06456
lowerneck -17.7867 4.27785 0.510716
upperneck 38.8884 8.91498 -1.09747
head 17.3297 4.13887 1.34649
rclavicle 3.50855e-014 2.0276e-014
rhumerus -28.9625 -1.08695 -86.1207
rradius 34.0356
rwrist -12.8748
rhand -9.51981 -30.6359
rfingers 7.12502
rthumb 16.446 -59.9588
lclavicle 3.50855e-014 2.0276e-014
lhumerus -26.8358 14.3366 84.8392
lradius 20.5131
lwrist -2.38704
lhand -19.7575 -10.1826
lfingers 7.12502
lthumb 6.57389 19.6954
rfemur -1.85626 -4.22082 4.27589
rtibia 16.9994
rfoot -16.5172 -20.055
rtoes -4.35351
lfemur 0.77773 -5.41036 -22.9953
ltibia 12.6053
lfoot -18.2126 23.8057
ltoes -0.129957
85
root -4.18193 16.8162 -0.174051 126.707 81.2037 124.143
lowerback -2.06679 1.93486 -8.62896
upperback 2.7971 2.99853 -0.713402
thorax 3.68217 1.27708 4.23533
lowerneck -17.8883 2.99858 -1.11939
upperneck 38.9328 7.11733 -0.221803
head 17.2239 3.28261 1.66652
rclavicle -4.77083e-014 8.34896e-015
rhumerus -28.5185 -0.340764 -86.1942
rradius 34.4463
rwrist -13.3143
rhand -9.66436 -30.8485
rfingers 7.12502
rthumb 16.3068 -60.1829
lclavicle -4.77083e-014 8.34896e-015
lhumerus -27.2375 13.3302 85.1651
lradius 21.6796
lwrist -1.07282
lhand -19.6433 -9.7766
lfingers 7.12502
lthumb 6.68414 20.0979
rfemur -2.26572 -5.05729 4.09173
rtibia 17.6961
rfoot -16.1417 -19.0456
rtoes -4.33471
lfemur 0.963133 -5.12885 -23.0274
ltibia 12.5314
lfoot -17.9664 23.7622
ltoes -0.122004
86
root -4.23579 16.8183 -0.141268 124.438 81.2602 122.186
lowerback -0.939924 1.92121 -8.83567
upperback 3.05126 2.89097 -0.684822
thorax 3.31609 1.23073 4.33433
lowerneck -17.9989 1.91946 -2.08525
upperneck 38.9728 5.6209 0.140034
head 17.2333 2.57016 1.71001
rclavicle 4.07012e-014 1.15295e-014
rhumerus -27.9964 -0.0631923 -86.2051
rradius 34.8261
rwrist -13.4971
rhand -9.34864 -31.1915
rfingers 7.12502
rthumb 16.6108 -60.5007
lclavicle 4.07012e-014 1.15295e-014
lhumerus -27.6045 11.8923 85.5418
lradius 22.8403
lwrist 0.284474
lhand -19.4159 -9.84209
lfingers 7.12502
lthumb 6.90371 20.0253
rfemur -2.70764 -5.9289 3.93071
rtibia 18.4029
rfoot -15.9721 -17.9752
rtoes -3.56146
lfemur 0.995075 -4.49066 -22.9949
ltibia 12.7249
lfoot -17.5783 23.5741
ltoes -0.85057
87
root -4.29692 16.831 -0.102583 125.233 82.1175 123.046
lowerback -0.0182065 1.94539 -8.12378
upperback 3.31642 2.82072 -0.399036
thorax 3.09412 1.21461 4.20167
lowerneck -18.5079 0.924505 -2.54618
upperneck 39.2463 4.36727 -0.096313
head 17.5402 1.9349 1.46031
rclavicle -1.94809e-014 2.18663e-014
rhumerus -27.2464 0.271154 -86.1943
rradius 35.1911
rwrist -13.7656
rhand -8.8932 -31.9959
rfingers 7.12502
rthumb 17.0492 -61.2677
lclavicle -1.94809e-014 2.18663e-014
lhumerus -27.638 10.4523 85.9848
lradius 23.5938
lwrist 1.70282
lhand -19.3851 -11.3422
lfingers 7.12502
lthumb 6.93341 18.5242
rfemur -3.56586 -6.30977 4.9394
rtibia 19.1747
rfoot -16.0331 -17.372
rtoes -2.62667
lfemur 0.580265 -3.71036 -21.8843
ltibia 13.0722
lfoot -17.0994 23.2228
ltoes -1.9825
88
root -4.36306 16.8338 -0.0667344 123.446 82.7372 121.313
lowerback 1.15639 1.93615 -7.6962
upperback 3.54183 2.70499 -0.190762
thorax 2.68735 1.1792 4.13659
lowerneck -18.7345 0.0967515 -3.2787
upperneck 38.9851 3.2767 -0.0801423
head 17.4632 1.36481 1.37297
rclavicle -6.26172e-015 -1.03368e-014
rhumerus -26.5899 1.09874 -86.2575
rradius 35.653
rwrist -14.3185
rhand -8.91236 -32.5492
rfingers 7.12502
rthumb 17.0308 -61.8226
lclavicle -6.26172e-015 -1.03368e-014
lhumerus -27.7292 9.37639 86.2698
lradius 24.218
lwrist 2.90266
lhand -19.1659 -12.5369
lfingers 7.12502
lthumb 7.14499 17.3225
rfemur -4.50895 -6.82687 5.45684
rtibia 20.0561
rfoot -15.8332 -16.4283
rtoes -2.46158
lfemur 0.191127 -3.07871 -21.2609
ltibia 13.469
lfoot -17.0613 23.0418
ltoes -2.24424
89
root -4.43165 16.8282 -0.0277599 120.362 82.977 118.419
lowerback 2.67514 1.92093 -7.56824
upperback 3.68472 2.56277 -0.0772405
thorax 1.99997 1.13769 4.12959
lowerneck -18.8734 -0.575014 -3.81939
upperneck 38.8736 2.44341 -0.175074
head 17.4575 0.918315 1.25584
rclavicle -1.11319e-014 1.27222e-014
rhumerus -26.2665 1.71437 -86.2535
rradius 36.258
rwrist -14.7131
rhand -8.84667 -32.6343
rfingers 7.12502
rthumb 17.094 -61.9023
lclavicle -1.11319e-014 1.27222e-014
lhumerus -28.0342 8.53605 86.3716
lradius 24.8451
lwrist 3.41134
lhand -18.5285 -12.3099
lfingers 7.12502
lthumb 7.76025 17.5277
rfemur -5.30792 -7.44297 5.54909
rtibia 20.9925
rfoot -15.2867 -15.5635
rtoes -4.17582
lfemur -0.0732123 -2.43614 -21.0399
ltibia 13.9276
lfoot -17.1618 22.8365
ltoes -2.34402
90
root -4.49607 16.8226 0.0156854 116.068 83.0632 114.269
lowerback 3.30107 1.91607 -7.44254
upperback 4.36336 2.56058 -0.0918983
thorax 2.36435 1.11999 4.03657
lowerneck -19.2712 -1.23597 -4.62364
upperneck 38.5522 1.50646 0.200482
head 17.4001 0.448561 1.37278
rclavicle -9.0447e-015 3.02153e-014
rhumerus -25.1146 1.99903 -86.2819
rradius 36.7882
rwrist -14.9569
rhand -8.74709 -32.8452
rfingers 7.12502
rthumb 17.1899 -62.1048
lclavicle -9.0447e-015 3.02153e-014
lhumerus -27.4132 7.79163 86.4317
lradius 25.2713
lwrist 3.65245
lhand -17.9008 -11.433
lfingers 7.12502
lthumb 8.36603 18.3813
rfemur -6.23769 -8.02247 5.49099
rtibia 22.0747
rfoot -14.7667 -14.7866
rtoes -6.45775
lfemur -0.315541 -1.53409 -20.9512
ltibia 14.2601
lfoot -16.8728 22.3978
ltoes -3.49638
